<svg width="104" height="24" viewBox="0 0 104 24" fill="none" xmlns="http://www.w3.org/2000/svg">
<g clip-path="url(#clip0_22_650)">
<path d="M19.4236 11.4389H16.6549C15.8625 11.4389 15.1026 11.1066 14.5423 10.5152C13.9819 9.92369 13.6669 9.12145 13.6666 8.28483V2.18818C13.662 1.61872 13.8695 1.07016 14.2445 0.660822C14.6194 0.251486 15.1317 0.0141739 15.6709 7.55216e-05C15.9374 -0.00229348 16.2017 0.0510933 16.4485 0.157177C16.6954 0.263261 16.9199 0.419927 17.1091 0.618129C17.2982 0.816331 17.4484 1.05216 17.5507 1.31197C17.6531 1.57177 17.7058 1.85039 17.7056 2.13178V8.86901C17.7013 9.26318 17.7767 9.65376 17.9267 10.0147C18.0767 10.3757 18.2979 10.6988 18.5755 10.9623C18.8155 11.1942 19.1073 11.3582 19.4236 11.4389Z" fill="#A3DC2F"/>
<path d="M21.2714 11.2724C22.568 11.2724 23.6191 10.1625 23.6191 8.79347C23.6191 7.42441 22.568 6.31458 21.2714 6.31458C19.9748 6.31458 18.9237 7.42441 18.9237 8.79347C18.9237 10.1625 19.9748 11.2724 21.2714 11.2724Z" fill="#A3DC2F"/>
<path d="M13.6665 19.57V16.6453C13.6668 15.8087 13.9818 15.0065 14.5422 14.415C15.1026 13.8236 15.8625 13.4913 16.6548 13.4913H22.4288C22.9681 13.4861 23.4877 13.7052 23.8752 14.1012C24.2628 14.4972 24.4871 15.0384 24.4999 15.6077C24.5021 15.889 24.4515 16.1681 24.3511 16.4287C24.2506 16.6894 24.1022 16.9264 23.9145 17.1262C23.7268 17.3259 23.5035 17.4844 23.2574 17.5925C23.0114 17.7006 22.7475 17.7562 22.481 17.756H16.1003C15.7271 17.7516 15.3572 17.8313 15.0153 17.9897C14.6735 18.1481 14.3675 18.3816 14.1178 18.6746C13.8987 18.9284 13.7435 19.2363 13.6665 19.57Z" fill="#A3DC2F"/>
<path d="M16.1719 23.9999C17.4685 23.9999 18.5196 22.8901 18.5196 21.521C18.5196 20.152 17.4685 19.0421 16.1719 19.0421C14.8753 19.0421 13.8242 20.152 13.8242 21.521C13.8242 22.8901 14.8753 23.9999 16.1719 23.9999Z" fill="#A3DC2F"/>
<path d="M5.57642 12.5612H8.34633C9.13866 12.5615 9.89843 12.8941 10.4586 13.4858C11.0187 14.0775 11.3334 14.8798 11.3334 15.7164V21.8131C11.3334 22.993 10.4477 23.991 9.33029 24C9.0637 24.0025 8.79926 23.9492 8.55228 23.8432C8.3053 23.7372 8.08067 23.5806 7.89136 23.3823C7.70205 23.1841 7.55183 22.9482 7.44937 22.6883C7.34691 22.4285 7.29424 22.1497 7.29441 21.8682V15.131C7.29891 14.737 7.22363 14.3465 7.0736 13.9857C6.92357 13.6249 6.70226 13.3021 6.4245 13.039C6.1844 12.8069 5.89269 12.6425 5.57642 12.5612Z" fill="#A3DC2F"/>
<path d="M3.72855 17.6855C5.02515 17.6855 6.07625 16.5756 6.07625 15.2066C6.07625 13.8375 5.02515 12.7277 3.72855 12.7277C2.43196 12.7277 1.38086 13.8375 1.38086 15.2066C1.38086 16.5756 2.43196 17.6855 3.72855 17.6855Z" fill="#A3DC2F"/>
<path d="M11.3322 4.4314V7.35481C11.3322 8.19142 11.0176 8.99381 10.4574 9.5855C9.89724 10.1772 9.13747 10.5098 8.34513 10.5101H2.57236C2.03304 10.515 1.51352 10.2958 1.12585 9.89993C0.738176 9.50401 0.513424 8.96308 0.500072 8.39378C0.497828 8.11239 0.548404 7.83331 0.648873 7.57268C0.749342 7.31204 0.897716 7.07499 1.08543 6.87524C1.27314 6.67549 1.49648 6.51699 1.74253 6.40888C1.98858 6.30077 2.25247 6.24522 2.51897 6.2454H8.90567C9.27897 6.24992 9.6489 6.17031 9.99076 6.01192C10.3326 5.85353 10.6386 5.62 10.8882 5.32687C11.1052 5.07258 11.2579 4.76458 11.3322 4.4314Z" fill="#A3DC2F"/>
<path d="M8.82804 4.95791C10.1246 4.95791 11.1757 3.84807 11.1757 2.47902C11.1757 1.10996 10.1246 0.00012207 8.82804 0.00012207C7.53144 0.00012207 6.48035 1.10996 6.48035 2.47902C6.48035 3.84807 7.53144 4.95791 8.82804 4.95791Z" fill="#A3DC2F"/>
<path d="M34.2216 21V3.54545H45.4034V6.19602H37.3835V10.9347H44.6364V13.5852H37.3835V21H34.2216ZM48.1477 21V7.90909H51.233V21H48.1477ZM49.6989 6.05114C49.2102 6.05114 48.7898 5.8892 48.4375 5.56534C48.0852 5.23579 47.9091 4.84091 47.9091 4.38068C47.9091 3.91477 48.0852 3.51989 48.4375 3.19602C48.7898 2.86648 49.2102 2.7017 49.6989 2.7017C50.1932 2.7017 50.6136 2.86648 50.9602 3.19602C51.3125 3.51989 51.4886 3.91477 51.4886 4.38068C51.4886 4.84091 51.3125 5.23579 50.9602 5.56534C50.6136 5.8892 50.1932 6.05114 49.6989 6.05114ZM57.4908 13.3295V21H54.4055V7.90909H57.3544V10.1335H57.5078C57.8089 9.40057 58.2891 8.81818 58.9482 8.38636C59.6129 7.95455 60.4339 7.73864 61.4112 7.73864C62.3146 7.73864 63.1016 7.93182 63.772 8.31818C64.4482 8.70455 64.9709 9.2642 65.3402 9.99716C65.7152 10.7301 65.8999 11.6193 65.8942 12.6648V21H62.8089V13.142C62.8089 12.267 62.5817 11.5824 62.1271 11.0881C61.6783 10.5937 61.0561 10.3466 60.2607 10.3466C59.7209 10.3466 59.2408 10.4659 58.8203 10.7045C58.4055 10.9375 58.0788 11.2756 57.8402 11.7188C57.6072 12.1619 57.4908 12.6989 57.4908 13.3295ZM69.1669 21V3.54545H75.8487C77.1101 3.54545 78.1584 3.74432 78.9936 4.14204C79.8345 4.53409 80.4624 5.07102 80.8771 5.75284C81.2976 6.43466 81.5078 7.20739 81.5078 8.07102C81.5078 8.78125 81.3714 9.3892 81.0987 9.89489C80.826 10.3949 80.4595 10.8011 79.9993 11.1136C79.5391 11.4261 79.0249 11.6506 78.4567 11.7869V11.9574C79.076 11.9915 79.6697 12.1818 80.2379 12.5284C80.8118 12.8693 81.2805 13.3523 81.6442 13.9773C82.0078 14.6023 82.1896 15.358 82.1896 16.2443C82.1896 17.1477 81.9709 17.9602 81.5334 18.6818C81.0959 19.3977 80.4368 19.9631 79.5561 20.3778C78.6754 20.7926 77.5675 21 76.2322 21H69.1669ZM72.3288 18.358H75.7294C76.8771 18.358 77.7038 18.1392 78.2095 17.7017C78.7209 17.2585 78.9766 16.6903 78.9766 15.9972C78.9766 15.4801 78.8487 15.0142 78.593 14.5994C78.3374 14.179 77.9737 13.8494 77.5021 13.6108C77.0305 13.3665 76.468 13.2443 75.8146 13.2443H72.3288V18.358ZM72.3288 10.9688H75.4567C76.0021 10.9688 76.4936 10.8693 76.9311 10.6705C77.3686 10.4659 77.7124 10.179 77.9624 9.80966C78.218 9.43466 78.3459 8.99148 78.3459 8.48011C78.3459 7.80398 78.1072 7.24716 77.63 6.80966C77.1584 6.37216 76.4567 6.15341 75.5249 6.15341H72.3288V10.9688ZM84.804 21V7.90909H87.8892V21H84.804ZM86.3551 6.05114C85.8665 6.05114 85.446 5.8892 85.0938 5.56534C84.7415 5.23579 84.5653 4.84091 84.5653 4.38068C84.5653 3.91477 84.7415 3.51989 85.0938 3.19602C85.446 2.86648 85.8665 2.7017 86.3551 2.7017C86.8494 2.7017 87.2699 2.86648 87.6165 3.19602C87.9688 3.51989 88.1449 3.91477 88.1449 4.38068C88.1449 4.84091 87.9688 5.23579 87.6165 5.56534C87.2699 5.8892 86.8494 6.05114 86.3551 6.05114ZM90.8913 21V19.0398L97.6413 10.5767V10.4659H91.1129V7.90909H101.417V10.0142L94.9908 18.3324V18.4432H101.638V21H90.8913Z" fill="#1D1C20"/>
</g>
<defs>
<clipPath id="clip0_22_650">
<rect width="103" height="24" fill="white" transform="translate(0.5)"/>
</clipPath>
</defs>
</svg>
